<svg width="17" height="6" viewBox="0 0 17 6" fill="none" xmlns="http://www.w3.org/2000/svg">
<path d="M15.5828 4.69717C15.4835 4.68069 15.2512 4.58131 15.1088 4.51838C14.9905 4.46615 14.9006 4.34808 14.8091 4.22322C14.7094 4.08714 14.6509 3.94854 14.5594 3.86925C14.4589 3.78223 14.3433 3.69883 14.1685 3.54076C14.0482 3.432 13.9352 3.36571 13.7938 3.23686C13.6979 3.14948 13.5692 3.116 13.4607 3.07417C13.3353 3.02586 13.1861 2.95768 13.0613 2.88289C12.9391 2.8097 12.7951 2.79936 12.6617 2.77452C12.5108 2.7464 12.3621 2.70797 12.1584 2.63318C12.038 2.58897 11.9211 2.54166 11.8126 2.47499C11.7071 2.41015 11.5225 2.1601 11.3631 2.00478C11.2302 1.87531 11.0386 1.73409 10.8971 1.61373C10.7843 1.51778 10.6226 1.45142 10.2822 1.26026C9.91838 1.05593 9.70712 1.10132 9.57365 1.07648C9.38363 1.0411 9.24915 1.0349 9.06611 1.00568C8.89257 0.977982 8.75822 0.943504 8.55008 0.905798C8.39345 0.877421 8.29176 0.8601 8.18763 0.826764C7.98478 0.761823 7.65948 0.785187 7.34772 0.768456C7.23246 0.762271 6.97827 0.726754 6.64128 0.722634C6.30293 0.718497 5.91949 0.685302 5.79876 0.672692C5.68319 0.660621 5.43805 0.626869 5.08034 0.606143C4.57787 0.57703 4.21296 0.593658 4.13006 0.581172C3.90723 0.547614 3.59068 0.551956 3.34771 0.53123C3.20757 0.519275 3.0975 0.518744 2.73042 0.506259C2.38824 0.49462 1.72883 0.502014 1.37274 0.506134C0.915867 0.51142 0.783917 0.568437 0.654691 0.581047C0.62535 0.585168 0.600628 0.593408 0.575532 0.601773C0.550436 0.610139 0.525715 0.618379 0.500244 0.626869" stroke="#0BA16C" stroke-linecap="round"/>
</svg>
